<svg width="136" height="25" viewBox="0 0 136 25" fill="none" xmlns="http://www.w3.org/2000/svg">
<path d="M15.2656 10.6406V14.0156H3.29688V10.6406H15.2656ZM4.46875 1.25V24H0.171875V1.25H4.46875ZM18.4531 1.25V24H14.1562V1.25H18.4531ZM31.8281 20.4062V12.6094C31.8281 12.0365 31.7292 11.5417 31.5312 11.125C31.3333 10.7083 31.0312 10.3854 30.625 10.1562C30.2188 9.92708 29.7031 9.8125 29.0781 9.8125C28.526 9.8125 28.0417 9.90625 27.625 10.0938C27.2188 10.2812 26.9062 10.5469 26.6875 10.8906C26.4688 11.224 26.3594 11.6094 26.3594 12.0469H22.2188C22.2188 11.349 22.3854 10.6875 22.7188 10.0625C23.0521 9.42708 23.526 8.86458 24.1406 8.375C24.7656 7.875 25.5104 7.48438 26.375 7.20312C27.25 6.92188 28.2292 6.78125 29.3125 6.78125C30.5938 6.78125 31.7344 7 32.7344 7.4375C33.7448 7.86458 34.5365 8.51042 35.1094 9.375C35.6927 10.2396 35.9844 11.3281 35.9844 12.6406V20.0156C35.9844 20.8594 36.0365 21.5833 36.1406 22.1875C36.2552 22.7812 36.4219 23.2969 36.6406 23.7344V24H32.4375C32.2396 23.5729 32.0885 23.0312 31.9844 22.375C31.8802 21.7083 31.8281 21.0521 31.8281 20.4062ZM32.4062 13.7031L32.4375 16.1562H29.8281C29.1823 16.1562 28.6146 16.224 28.125 16.3594C27.6354 16.4844 27.2344 16.6719 26.9219 16.9219C26.6094 17.1615 26.375 17.4531 26.2188 17.7969C26.0625 18.1302 25.9844 18.5104 25.9844 18.9375C25.9844 19.3542 26.0781 19.7292 26.2656 20.0625C26.4635 20.3958 26.7448 20.6615 27.1094 20.8594C27.4844 21.0469 27.9219 21.1406 28.4219 21.1406C29.151 21.1406 29.7865 20.9948 30.3281 20.7031C30.8698 20.401 31.2917 20.0365 31.5938 19.6094C31.8958 19.1823 32.0573 18.776 32.0781 18.3906L33.2656 20.1719C33.1198 20.599 32.901 21.0521 32.6094 21.5312C32.3177 22.0104 31.9427 22.4583 31.4844 22.875C31.026 23.2917 30.474 23.6354 29.8281 23.9062C29.1823 24.1771 28.4323 24.3125 27.5781 24.3125C26.4844 24.3125 25.5052 24.0938 24.6406 23.6562C23.776 23.2188 23.0938 22.6198 22.5938 21.8594C22.0938 21.099 21.8438 20.2344 21.8438 19.2656C21.8438 18.3698 22.0104 17.5781 22.3438 16.8906C22.6771 16.2031 23.1719 15.625 23.8281 15.1562C24.4844 14.6771 25.2969 14.3177 26.2656 14.0781C27.2448 13.8281 28.3646 13.7031 29.625 13.7031H32.4062ZM43.8281 10.5469V24H39.7031V7.09375H43.6094L43.8281 10.5469ZM48.9688 6.98438L48.9062 10.8281C48.6771 10.7865 48.4167 10.7552 48.125 10.7344C47.8438 10.7135 47.5781 10.7031 47.3281 10.7031C46.6927 10.7031 46.1354 10.7917 45.6562 10.9688C45.1771 11.1354 44.776 11.3802 44.4531 11.7031C44.1406 12.026 43.901 12.4219 43.7344 12.8906C43.5677 13.349 43.474 13.8698 43.4531 14.4531L42.5625 14.3438C42.5625 13.2708 42.6719 12.276 42.8906 11.3594C43.1094 10.4427 43.4271 9.64062 43.8438 8.95312C44.2604 8.26562 44.7812 7.73438 45.4062 7.35938C46.0417 6.97396 46.7708 6.78125 47.5938 6.78125C47.8229 6.78125 48.0677 6.80208 48.3281 6.84375C48.599 6.875 48.8125 6.92188 48.9688 6.98438ZM61.0625 20.4062V0H65.2188V24H61.4688L61.0625 20.4062ZM50.2031 15.75V15.4219C50.2031 14.1302 50.349 12.9583 50.6406 11.9062C50.9427 10.8438 51.3802 9.93229 51.9531 9.17188C52.526 8.41146 53.2188 7.82292 54.0312 7.40625C54.8542 6.98958 55.7865 6.78125 56.8281 6.78125C57.8385 6.78125 58.7188 6.98438 59.4688 7.39062C60.2292 7.79688 60.875 8.375 61.4062 9.125C61.9479 9.875 62.3802 10.7656 62.7031 11.7969C63.026 12.8177 63.2604 13.9427 63.4062 15.1719V16.0625C63.2604 17.2604 63.026 18.3594 62.7031 19.3594C62.3802 20.3594 61.9479 21.2344 61.4062 21.9844C60.875 22.724 60.2292 23.2969 59.4688 23.7031C58.7083 24.1094 57.8177 24.3125 56.7969 24.3125C55.7656 24.3125 54.8385 24.099 54.0156 23.6719C53.2031 23.2448 52.5104 22.6458 51.9375 21.875C51.375 21.1042 50.9427 20.1979 50.6406 19.1562C50.349 18.1146 50.2031 16.9792 50.2031 15.75ZM54.3438 15.4219V15.75C54.3438 16.4792 54.4062 17.1615 54.5312 17.7969C54.6562 18.4323 54.8594 18.9948 55.1406 19.4844C55.4219 19.9635 55.7812 20.3385 56.2188 20.6094C56.6667 20.8802 57.2083 21.0156 57.8438 21.0156C58.6562 21.0156 59.3229 20.8385 59.8438 20.4844C60.375 20.1198 60.7865 19.625 61.0781 19C61.3698 18.3646 61.5573 17.651 61.6406 16.8594V14.4062C61.599 13.7812 61.4896 13.2031 61.3125 12.6719C61.1458 12.1406 60.9062 11.6823 60.5938 11.2969C60.2917 10.9115 59.9167 10.6094 59.4688 10.3906C59.0208 10.1719 58.4896 10.0625 57.875 10.0625C57.2396 10.0625 56.6979 10.2031 56.25 10.4844C55.8021 10.7552 55.4375 11.1354 55.1562 11.625C54.875 12.1146 54.6667 12.6823 54.5312 13.3281C54.4062 13.974 54.3438 14.6719 54.3438 15.4219ZM79.0312 1.25V24H74.75V1.25H79.0312ZM86.0938 1.25V4.64062H67.7656V1.25H86.0938ZM94.7656 24.3125C93.4844 24.3125 92.3333 24.1042 91.3125 23.6875C90.2917 23.2708 89.4219 22.6927 88.7031 21.9531C87.9948 21.2031 87.4479 20.3333 87.0625 19.3438C86.6875 18.3438 86.5 17.2708 86.5 16.125V15.5C86.5 14.1979 86.6875 13.0156 87.0625 11.9531C87.4375 10.8802 87.9688 9.95833 88.6562 9.1875C89.3438 8.41667 90.1667 7.82292 91.125 7.40625C92.0833 6.98958 93.1406 6.78125 94.2969 6.78125C95.4948 6.78125 96.5521 6.98438 97.4688 7.39062C98.3854 7.78646 99.151 8.34896 99.7656 9.07812C100.38 9.80729 100.844 10.6823 101.156 11.7031C101.469 12.7135 101.625 13.8333 101.625 15.0625V16.7969H88.375V13.9531H97.5625V13.6406C97.5417 12.9844 97.4167 12.3854 97.1875 11.8438C96.9583 11.2917 96.6042 10.8542 96.125 10.5312C95.6458 10.1979 95.026 10.0312 94.2656 10.0312C93.651 10.0312 93.1146 10.1667 92.6562 10.4375C92.2083 10.6979 91.8333 11.0729 91.5312 11.5625C91.2396 12.0417 91.0208 12.6146 90.875 13.2812C90.7292 13.9479 90.6562 14.6875 90.6562 15.5V16.125C90.6562 16.8333 90.75 17.4896 90.9375 18.0938C91.1354 18.6979 91.4219 19.224 91.7969 19.6719C92.1823 20.1094 92.6406 20.4531 93.1719 20.7031C93.7135 20.9427 94.3281 21.0625 95.0156 21.0625C95.8802 21.0625 96.6615 20.8958 97.3594 20.5625C98.0677 20.2188 98.6823 19.7135 99.2031 19.0469L101.281 21.2031C100.927 21.724 100.448 22.224 99.8438 22.7031C99.25 23.1823 98.5312 23.5729 97.6875 23.875C96.8438 24.1667 95.8698 24.3125 94.7656 24.3125ZM111.328 21.0625C111.911 21.0625 112.432 20.9479 112.891 20.7188C113.349 20.4896 113.714 20.1667 113.984 19.75C114.266 19.3333 114.417 18.849 114.438 18.2969H118.328C118.307 19.4427 117.984 20.4688 117.359 21.375C116.734 22.2812 115.901 23 114.859 23.5312C113.828 24.0521 112.672 24.3125 111.391 24.3125C110.089 24.3125 108.953 24.0938 107.984 23.6562C107.016 23.2188 106.208 22.6094 105.562 21.8281C104.927 21.0469 104.448 20.1406 104.125 19.1094C103.812 18.0781 103.656 16.974 103.656 15.7969V15.2969C103.656 14.1198 103.812 13.0156 104.125 11.9844C104.448 10.9531 104.927 10.0469 105.562 9.26562C106.208 8.48438 107.016 7.875 107.984 7.4375C108.953 7 110.083 6.78125 111.375 6.78125C112.74 6.78125 113.938 7.04688 114.969 7.57812C116.01 8.10938 116.823 8.85938 117.406 9.82812C118 10.7969 118.307 11.9375 118.328 13.25H114.438C114.417 12.6458 114.281 12.1042 114.031 11.625C113.781 11.1458 113.427 10.7604 112.969 10.4688C112.51 10.1771 111.953 10.0312 111.297 10.0312C110.599 10.0312 110.016 10.1771 109.547 10.4688C109.089 10.7604 108.729 11.1615 108.469 11.6719C108.219 12.1719 108.042 12.7344 107.938 13.3594C107.844 13.974 107.797 14.6198 107.797 15.2969V15.7969C107.797 16.4844 107.844 17.1406 107.938 17.7656C108.042 18.3906 108.219 18.9531 108.469 19.4531C108.729 19.9427 109.089 20.3333 109.547 20.625C110.016 20.9167 110.609 21.0625 111.328 21.0625ZM125.125 0V24H120.984V0H125.125ZM124.469 14.9375H123.25C123.25 13.7604 123.406 12.6771 123.719 11.6875C124.031 10.6979 124.474 9.83854 125.047 9.10938C125.62 8.36979 126.302 7.79688 127.094 7.39062C127.896 6.98438 128.781 6.78125 129.75 6.78125C130.583 6.78125 131.339 6.90104 132.016 7.14062C132.703 7.36979 133.292 7.73958 133.781 8.25C134.271 8.76042 134.646 9.42708 134.906 10.25C135.177 11.0625 135.312 12.0521 135.312 13.2188V24H131.156V13.1875C131.156 12.4062 131.042 11.7917 130.812 11.3438C130.583 10.8854 130.255 10.5573 129.828 10.3594C129.411 10.1615 128.896 10.0625 128.281 10.0625C127.615 10.0625 127.042 10.1927 126.562 10.4531C126.083 10.7031 125.688 11.0521 125.375 11.5C125.073 11.9479 124.844 12.4635 124.688 13.0469C124.542 13.6302 124.469 14.2604 124.469 14.9375Z" fill="white"/>
</svg>
