<svg width="520" height="40" viewBox="0 0 520 40" fill="none" xmlns="http://www.w3.org/2000/svg">
<path d="M16.52 4.92002C20.808 4.92002 24.504 6.28002 27.608 9.00002L23.624 13.176C22.44 12.28 21.336 11.64 20.312 11.256C19.32 10.84 18.168 10.632 16.856 10.632C14.392 10.632 12.424 11.608 10.952 13.56C9.47999 15.48 8.74399 18.408 8.74399 22.344C8.74399 26.6 9.30398 29.624 10.424 31.416C11.544 33.176 13.288 34.056 15.656 34.056C17.32 34.056 18.824 33.688 20.168 32.952V25.416H15.848L15.08 19.848H27.8V36.312C26.072 37.432 24.168 38.296 22.088 38.904C20.008 39.512 17.928 39.816 15.848 39.816C10.792 39.816 6.98398 38.344 4.42398 35.4C1.86398 32.424 0.583984 28.072 0.583984 22.344C0.583984 18.696 1.27198 15.56 2.64798 12.936C4.05598 10.312 5.95998 8.32802 8.35998 6.98402C10.792 5.60802 13.512 4.92002 16.52 4.92002Z" fill="#F5F5F5"/>
<path d="M53.1695 31.608C53.1695 32.568 53.2975 33.272 53.5535 33.72C53.8415 34.168 54.2895 34.504 54.8975 34.728L53.3135 39.672C51.7455 39.544 50.4655 39.208 49.4735 38.664C48.4815 38.088 47.7135 37.192 47.1695 35.976C45.5055 38.536 42.9455 39.816 39.4895 39.816C36.9615 39.816 34.9455 39.08 33.4415 37.608C31.9375 36.136 31.1855 34.216 31.1855 31.848C31.1855 29.064 32.2095 26.936 34.2575 25.464C36.3055 23.992 39.2655 23.256 43.1375 23.256H45.7295V22.152C45.7295 20.648 45.4095 19.624 44.7695 19.08C44.1295 18.504 43.0095 18.216 41.4095 18.216C40.5775 18.216 39.5695 18.344 38.3855 18.6C37.2015 18.824 35.9855 19.144 34.7375 19.56L33.0095 14.568C34.6095 13.96 36.2415 13.496 37.9055 13.176C39.6015 12.856 41.1695 12.696 42.6095 12.696C46.2575 12.696 48.9295 13.448 50.6255 14.952C52.3215 16.456 53.1695 18.712 53.1695 21.72V31.608ZM41.6975 34.392C43.4255 34.392 44.7695 33.576 45.7295 31.944V27.432H43.8575C42.1295 27.432 40.8335 27.736 39.9695 28.344C39.1375 28.952 38.7215 29.896 38.7215 31.176C38.7215 32.2 38.9775 33 39.4895 33.576C40.0335 34.12 40.7695 34.392 41.6975 34.392Z" fill="#F5F5F5"/>
<path d="M73.6584 12.696C76.6984 12.696 79.0344 13.896 80.6664 16.296C82.2984 18.664 83.1144 21.992 83.1144 26.28C83.1144 28.904 82.6984 31.24 81.8664 33.288C81.0664 35.336 79.8984 36.936 78.3624 38.088C76.8584 39.24 75.0664 39.816 72.9864 39.816C71.6104 39.816 70.3464 39.528 69.1944 38.952C68.0744 38.376 67.1144 37.576 66.3144 36.552L65.9304 39H59.2104V3.38402L66.7944 2.56802V16.104C67.5624 15.048 68.5384 14.216 69.7224 13.608C70.9384 13 72.2504 12.696 73.6584 12.696ZM70.7784 34.296C73.7544 34.296 75.2424 31.624 75.2424 26.28C75.2424 23.24 74.8904 21.144 74.1864 19.992C73.4824 18.84 72.4584 18.264 71.1144 18.264C69.4184 18.264 67.9784 19.256 66.7944 21.24V31.848C67.2744 32.616 67.8504 33.224 68.5224 33.672C69.2264 34.088 69.9784 34.296 70.7784 34.296Z" fill="#F5F5F5"/>
<path d="M101.675 12.792C102.603 12.792 103.451 12.904 104.219 13.128L103.019 20.472C102.059 20.248 101.291 20.136 100.715 20.136C99.211 20.136 98.059 20.664 97.259 21.72C96.491 22.744 95.883 24.296 95.435 26.376V39H87.851V13.512H94.475L95.099 18.456C95.675 16.696 96.539 15.32 97.691 14.328C98.875 13.304 100.203 12.792 101.675 12.792Z" fill="#F5F5F5"/>
<path d="M114.701 13.512V39H107.117V13.512H114.701ZM110.861 0.0720215C112.173 0.0720215 113.245 0.488022 114.077 1.32002C114.941 2.12002 115.373 3.14402 115.373 4.39202C115.373 5.64002 114.941 6.68002 114.077 7.51202C113.245 8.31202 112.173 8.71202 110.861 8.71202C109.549 8.71202 108.477 8.31202 107.645 7.51202C106.813 6.68002 106.397 5.64002 106.397 4.39202C106.397 3.14402 106.813 2.12002 107.645 1.32002C108.477 0.488022 109.549 0.0720215 110.861 0.0720215Z" fill="#F5F5F5"/>
<path d="M142.887 25.752C142.887 26.808 142.839 27.72 142.743 28.488H126.951C127.207 30.632 127.815 32.136 128.775 33C129.735 33.864 131.063 34.296 132.759 34.296C133.783 34.296 134.775 34.12 135.735 33.768C136.695 33.384 137.735 32.808 138.855 32.04L141.975 36.264C138.999 38.632 135.687 39.816 132.039 39.816C127.911 39.816 124.743 38.6 122.535 36.168C120.327 33.736 119.223 30.472 119.223 26.376C119.223 23.784 119.687 21.464 120.615 19.416C121.543 17.336 122.903 15.704 124.695 14.52C126.487 13.304 128.631 12.696 131.127 12.696C134.807 12.696 137.687 13.848 139.767 16.152C141.847 18.456 142.887 21.656 142.887 25.752ZM135.447 23.592C135.383 19.688 134.007 17.736 131.319 17.736C130.007 17.736 128.983 18.216 128.247 19.176C127.543 20.136 127.111 21.72 126.951 23.928H135.447V23.592Z" fill="#F5F5F5"/>
<path d="M153.916 39.816C151.708 39.816 149.98 39.192 148.732 37.944C147.516 36.664 146.908 34.856 146.908 32.52V3.38402L154.492 2.56802V32.232C154.492 33.288 154.924 33.816 155.788 33.816C156.236 33.816 156.652 33.736 157.036 33.576L158.524 38.952C157.148 39.528 155.612 39.816 153.916 39.816Z" fill="#F5F5F5"/>
<path d="M172.932 39V5.73602H192.756L191.94 11.352H180.804V20.184H190.5V25.8H180.804V39H172.932Z" fill="#F5F5F5"/>
<path d="M216.716 25.752C216.716 26.808 216.668 27.72 216.572 28.488H200.78C201.036 30.632 201.644 32.136 202.604 33C203.564 33.864 204.892 34.296 206.588 34.296C207.612 34.296 208.604 34.12 209.564 33.768C210.524 33.384 211.564 32.808 212.684 32.04L215.804 36.264C212.828 38.632 209.516 39.816 205.868 39.816C201.74 39.816 198.572 38.6 196.364 36.168C194.156 33.736 193.052 30.472 193.052 26.376C193.052 23.784 193.516 21.464 194.444 19.416C195.372 17.336 196.732 15.704 198.524 14.52C200.316 13.304 202.46 12.696 204.956 12.696C208.636 12.696 211.516 13.848 213.596 16.152C215.676 18.456 216.716 21.656 216.716 25.752ZM209.276 23.592C209.212 19.688 207.836 17.736 205.148 17.736C203.836 17.736 202.812 18.216 202.076 19.176C201.372 20.136 200.94 21.72 200.78 23.928H209.276V23.592Z" fill="#F5F5F5"/>
<path d="M234.8 12.792C235.728 12.792 236.576 12.904 237.344 13.128L236.144 20.472C235.184 20.248 234.416 20.136 233.84 20.136C232.336 20.136 231.184 20.664 230.384 21.72C229.616 22.744 229.008 24.296 228.56 26.376V39H220.976V13.512H227.6L228.224 18.456C228.8 16.696 229.664 15.32 230.816 14.328C232 13.304 233.328 12.792 234.8 12.792Z" fill="#F5F5F5"/>
<path d="M254.066 12.792C254.994 12.792 255.842 12.904 256.61 13.128L255.41 20.472C254.45 20.248 253.682 20.136 253.106 20.136C251.602 20.136 250.45 20.664 249.65 21.72C248.882 22.744 248.274 24.296 247.826 26.376V39H240.242V13.512H246.866L247.49 18.456C248.066 16.696 248.93 15.32 250.082 14.328C251.266 13.304 252.594 12.792 254.066 12.792Z" fill="#F5F5F5"/>
<path d="M280.278 25.752C280.278 26.808 280.23 27.72 280.134 28.488H264.342C264.598 30.632 265.206 32.136 266.166 33C267.126 33.864 268.454 34.296 270.15 34.296C271.174 34.296 272.166 34.12 273.126 33.768C274.086 33.384 275.126 32.808 276.246 32.04L279.366 36.264C276.39 38.632 273.078 39.816 269.43 39.816C265.302 39.816 262.134 38.6 259.926 36.168C257.718 33.736 256.614 30.472 256.614 26.376C256.614 23.784 257.078 21.464 258.006 19.416C258.934 17.336 260.294 15.704 262.086 14.52C263.878 13.304 266.022 12.696 268.518 12.696C272.198 12.696 275.078 13.848 277.158 16.152C279.238 18.456 280.278 21.656 280.278 25.752ZM272.838 23.592C272.774 19.688 271.398 17.736 268.71 17.736C267.398 17.736 266.374 18.216 265.638 19.176C264.934 20.136 264.502 21.72 264.342 23.928H272.838V23.592Z" fill="#F5F5F5"/>
<path d="M292.122 13.512V39H284.538V13.512H292.122ZM288.282 0.0720215C289.594 0.0720215 290.666 0.488022 291.498 1.32002C292.362 2.12002 292.794 3.14402 292.794 4.39202C292.794 5.64002 292.362 6.68002 291.498 7.51202C290.666 8.31202 289.594 8.71202 288.282 8.71202C286.97 8.71202 285.898 8.31202 285.066 7.51202C284.234 6.68002 283.818 5.64002 283.818 4.39202C283.818 3.14402 284.234 2.12002 285.066 1.32002C285.898 0.488022 286.97 0.0720215 288.282 0.0720215Z" fill="#F5F5F5"/>
<path d="M311.909 12.792C312.837 12.792 313.685 12.904 314.453 13.128L313.253 20.472C312.293 20.248 311.525 20.136 310.949 20.136C309.445 20.136 308.293 20.664 307.493 21.72C306.725 22.744 306.117 24.296 305.669 26.376V39H298.085V13.512H304.709L305.333 18.456C305.909 16.696 306.773 15.32 307.925 14.328C309.109 13.304 310.437 12.792 311.909 12.792Z" fill="#F5F5F5"/>
<path d="M335.919 31.608C335.919 32.568 336.047 33.272 336.303 33.72C336.591 34.168 337.039 34.504 337.647 34.728L336.063 39.672C334.495 39.544 333.215 39.208 332.223 38.664C331.231 38.088 330.463 37.192 329.919 35.976C328.255 38.536 325.695 39.816 322.239 39.816C319.711 39.816 317.695 39.08 316.191 37.608C314.687 36.136 313.935 34.216 313.935 31.848C313.935 29.064 314.959 26.936 317.007 25.464C319.055 23.992 322.015 23.256 325.887 23.256H328.479V22.152C328.479 20.648 328.159 19.624 327.519 19.08C326.879 18.504 325.759 18.216 324.159 18.216C323.327 18.216 322.319 18.344 321.135 18.6C319.951 18.824 318.735 19.144 317.487 19.56L315.759 14.568C317.359 13.96 318.991 13.496 320.655 13.176C322.351 12.856 323.919 12.696 325.359 12.696C329.007 12.696 331.679 13.448 333.375 14.952C335.071 16.456 335.919 18.712 335.919 21.72V31.608ZM324.447 34.392C326.175 34.392 327.519 33.576 328.479 31.944V27.432H326.607C324.879 27.432 323.583 27.736 322.719 28.344C321.887 28.952 321.471 29.896 321.471 31.176C321.471 32.2 321.727 33 322.239 33.576C322.783 34.12 323.519 34.392 324.447 34.392Z" fill="#F5F5F5"/>
<path d="M386.519 39H378.791L378.215 25.992C378.055 22.888 377.975 20.12 377.975 17.688C377.975 15.832 378.023 14.072 378.119 12.408L372.983 35.496H365.543L360.071 12.408C360.263 15.192 360.359 17.816 360.359 20.28C360.359 22.136 360.311 24.072 360.215 26.088L359.639 39H351.959L354.455 5.73602H364.391L369.383 28.296L374.039 5.73602H384.023L386.519 39Z" fill="#F5F5F5"/>
<path d="M413.309 25.752C413.309 26.808 413.261 27.72 413.165 28.488H397.373C397.629 30.632 398.237 32.136 399.197 33C400.157 33.864 401.485 34.296 403.181 34.296C404.205 34.296 405.197 34.12 406.157 33.768C407.117 33.384 408.157 32.808 409.277 32.04L412.397 36.264C409.421 38.632 406.109 39.816 402.461 39.816C398.333 39.816 395.165 38.6 392.957 36.168C390.749 33.736 389.645 30.472 389.645 26.376C389.645 23.784 390.109 21.464 391.037 19.416C391.965 17.336 393.325 15.704 395.117 14.52C396.909 13.304 399.053 12.696 401.549 12.696C405.229 12.696 408.109 13.848 410.189 16.152C412.269 18.456 413.309 21.656 413.309 25.752ZM405.869 23.592C405.805 19.688 404.429 17.736 401.741 17.736C400.429 17.736 399.405 18.216 398.669 19.176C397.965 20.136 397.533 21.72 397.373 23.928H405.869V23.592Z" fill="#F5F5F5"/>
<path d="M432.498 12.696C434.706 12.696 436.434 13.368 437.682 14.712C438.93 16.056 439.554 17.944 439.554 20.376V39H431.97V21.672C431.97 20.392 431.762 19.512 431.346 19.032C430.962 18.52 430.37 18.264 429.57 18.264C428.034 18.264 426.562 19.368 425.154 21.576V39H417.57V13.512H424.194L424.722 16.536C425.81 15.256 426.978 14.296 428.226 13.656C429.506 13.016 430.93 12.696 432.498 12.696Z" fill="#F5F5F5"/>
<path d="M468.121 3.38402V39H461.401L461.017 36.024C459.225 38.552 456.809 39.816 453.769 39.816C450.601 39.816 448.185 38.6 446.521 36.168C444.889 33.736 444.073 30.408 444.073 26.184C444.073 23.592 444.505 21.272 445.369 19.224C446.233 17.176 447.449 15.576 449.017 14.424C450.617 13.272 452.441 12.696 454.489 12.696C456.921 12.696 458.937 13.496 460.537 15.096V2.56802L468.121 3.38402ZM456.121 34.248C457.881 34.248 459.353 33.288 460.537 31.368V20.376C459.929 19.64 459.305 19.096 458.665 18.744C458.057 18.392 457.353 18.216 456.553 18.216C455.145 18.216 454.025 18.872 453.193 20.184C452.361 21.496 451.945 23.512 451.945 26.232C451.945 29.208 452.297 31.288 453.001 32.472C453.737 33.656 454.777 34.248 456.121 34.248Z" fill="#F5F5F5"/>
<path d="M496.278 25.752C496.278 26.808 496.23 27.72 496.134 28.488H480.342C480.598 30.632 481.206 32.136 482.166 33C483.126 33.864 484.454 34.296 486.15 34.296C487.174 34.296 488.166 34.12 489.126 33.768C490.086 33.384 491.126 32.808 492.246 32.04L495.366 36.264C492.39 38.632 489.078 39.816 485.43 39.816C481.302 39.816 478.134 38.6 475.926 36.168C473.718 33.736 472.614 30.472 472.614 26.376C472.614 23.784 473.078 21.464 474.006 19.416C474.934 17.336 476.294 15.704 478.086 14.52C479.878 13.304 482.022 12.696 484.518 12.696C488.198 12.696 491.078 13.848 493.158 16.152C495.238 18.456 496.278 21.656 496.278 25.752ZM488.838 23.592C488.774 19.688 487.398 17.736 484.71 17.736C483.398 17.736 482.374 18.216 481.638 19.176C480.934 20.136 480.502 21.72 480.342 23.928H488.838V23.592Z" fill="#F5F5F5"/>
<path d="M509.514 12.696C511.338 12.696 513.051 12.968 514.651 13.512C516.251 14.056 517.659 14.824 518.875 15.816L516.091 20.088C514.011 18.776 511.914 18.12 509.802 18.12C508.81 18.12 508.042 18.296 507.498 18.648C506.986 18.968 506.73 19.432 506.73 20.04C506.73 20.52 506.842 20.92 507.066 21.24C507.322 21.528 507.818 21.832 508.554 22.152C509.29 22.472 510.426 22.856 511.962 23.304C514.618 24.072 516.586 25.08 517.866 26.328C519.178 27.544 519.834 29.24 519.834 31.416C519.834 33.144 519.338 34.648 518.346 35.928C517.354 37.176 515.994 38.136 514.266 38.808C512.538 39.48 510.618 39.816 508.507 39.816C506.363 39.816 504.362 39.48 502.506 38.808C500.682 38.136 499.13 37.208 497.85 36.024L501.546 31.896C503.69 33.56 505.946 34.392 508.314 34.392C509.466 34.392 510.362 34.184 511.002 33.768C511.674 33.352 512.01 32.76 512.01 31.992C512.01 31.384 511.882 30.904 511.626 30.552C511.37 30.2 510.874 29.88 510.138 29.592C509.402 29.272 508.234 28.888 506.634 28.44C504.106 27.704 502.218 26.68 500.97 25.368C499.722 24.056 499.098 22.424 499.098 20.472C499.098 19 499.514 17.688 500.346 16.536C501.21 15.352 502.426 14.424 503.994 13.752C505.594 13.048 507.434 12.696 509.514 12.696Z" fill="#F5F5F5"/>
</svg>
