<svg width="28" height="28" viewBox="0 0 28 28" fill="none" xmlns="http://www.w3.org/2000/svg">
<rect width="28" height="28" rx="14" fill="#383F5D"/>
<path d="M16 11.9V10.2C16.55 9.96667 17.1125 9.79167 17.6875 9.675C18.2625 9.55833 18.8667 9.5 19.5 9.5C19.9333 9.5 20.3583 9.53333 20.775 9.6C21.1917 9.66667 21.6 9.75 22 9.85V11.45C21.6 11.3 21.1958 11.1875 20.7875 11.1125C20.3792 11.0375 19.95 11 19.5 11C18.8667 11 18.2583 11.0792 17.675 11.2375C17.0917 11.3958 16.5333 11.6167 16 11.9ZM16 17.4V15.7C16.55 15.4667 17.1125 15.2917 17.6875 15.175C18.2625 15.0583 18.8667 15 19.5 15C19.9333 15 20.3583 15.0333 20.775 15.1C21.1917 15.1667 21.6 15.25 22 15.35V16.95C21.6 16.8 21.1958 16.6875 20.7875 16.6125C20.3792 16.5375 19.95 16.5 19.5 16.5C18.8667 16.5 18.2583 16.575 17.675 16.725C17.0917 16.875 16.5333 17.1 16 17.4ZM16 14.65V12.95C16.55 12.7167 17.1125 12.5417 17.6875 12.425C18.2625 12.3083 18.8667 12.25 19.5 12.25C19.9333 12.25 20.3583 12.2833 20.775 12.35C21.1917 12.4167 21.6 12.5 22 12.6V14.2C21.6 14.05 21.1958 13.9375 20.7875 13.8625C20.3792 13.7875 19.95 13.75 19.5 13.75C18.8667 13.75 18.2583 13.8292 17.675 13.9875C17.0917 14.1458 16.5333 14.3667 16 14.65ZM8.5 18C9.28333 18 10.0458 18.0875 10.7875 18.2625C11.5292 18.4375 12.2667 18.7 13 19.05V9.2C12.3167 8.8 11.5917 8.5 10.825 8.3C10.0583 8.1 9.28333 8 8.5 8C7.9 8 7.30417 8.05833 6.7125 8.175C6.12083 8.29167 5.55 8.46667 5 8.7V18.6C5.58333 18.4 6.1625 18.25 6.7375 18.15C7.3125 18.05 7.9 18 8.5 18ZM15 19.05C15.7333 18.7 16.4708 18.4375 17.2125 18.2625C17.9542 18.0875 18.7167 18 19.5 18C20.1 18 20.6875 18.05 21.2625 18.15C21.8375 18.25 22.4167 18.4 23 18.6V8.7C22.45 8.46667 21.8792 8.29167 21.2875 8.175C20.6958 8.05833 20.1 8 19.5 8C18.7167 8 17.9417 8.1 17.175 8.3C16.4083 8.5 15.6833 8.8 15 9.2V19.05ZM14 22C13.2 21.3667 12.3333 20.875 11.4 20.525C10.4667 20.175 9.5 20 8.5 20C7.8 20 7.1125 20.0917 6.4375 20.275C5.7625 20.4583 5.11667 20.7167 4.5 21.05C4.15 21.2333 3.8125 21.225 3.4875 21.025C3.1625 20.825 3 20.5333 3 20.15V8.1C3 7.91667 3.04583 7.74167 3.1375 7.575C3.22917 7.40833 3.36667 7.28333 3.55 7.2C4.31667 6.8 5.11667 6.5 5.95 6.3C6.78333 6.1 7.63333 6 8.5 6C9.46667 6 10.4125 6.125 11.3375 6.375C12.2625 6.625 13.15 7 14 7.5C14.85 7 15.7375 6.625 16.6625 6.375C17.5875 6.125 18.5333 6 19.5 6C20.3667 6 21.2167 6.1 22.05 6.3C22.8833 6.5 23.6833 6.8 24.45 7.2C24.6333 7.28333 24.7708 7.40833 24.8625 7.575C24.9542 7.74167 25 7.91667 25 8.1V20.15C25 20.5333 24.8375 20.825 24.5125 21.025C24.1875 21.225 23.85 21.2333 23.5 21.05C22.8833 20.7167 22.2375 20.4583 21.5625 20.275C20.8875 20.0917 20.2 20 19.5 20C18.5 20 17.5333 20.175 16.6 20.525C15.6667 20.875 14.8 21.3667 14 22Z" fill="#6D78A8"/>
</svg>
