<svg width="24" height="24" viewBox="0 0 24 24" fill="none" xmlns="http://www.w3.org/2000/svg">
<circle cx="12" cy="12" r="12" fill="#1C1C1C"/>
<path d="M6.54375 18C5.79375 18 5.15313 17.7313 4.62188 17.1938C4.09063 16.6563 3.8125 16.0063 3.7875 15.2438C3.7875 15.1313 3.79375 15.0188 3.80625 14.9063C3.81875 14.7938 3.8375 14.6813 3.8625 14.5688L5.4375 8.26875C5.6125 7.59375 5.96875 7.04688 6.50625 6.62813C7.04375 6.20937 7.65625 6 8.34375 6H15.6563C16.3438 6 16.9563 6.20937 17.4938 6.62813C18.0313 7.04688 18.3875 7.59375 18.5625 8.26875L20.1375 14.5688C20.1625 14.6813 20.1844 14.7969 20.2031 14.9156C20.2219 15.0344 20.2313 15.15 20.2313 15.2625C20.2313 16.025 19.9594 16.6719 19.4156 17.2031C18.8719 17.7344 18.2188 18 17.4563 18C16.9313 18 16.4438 17.8625 15.9938 17.5875C15.5438 17.3125 15.2063 16.9375 14.9813 16.4625L14.4563 15.375C14.3938 15.25 14.3 15.1563 14.175 15.0938C14.05 15.0313 13.9188 15 13.7813 15H10.2188C10.0813 15 9.95 15.0313 9.825 15.0938C9.7 15.1563 9.60625 15.25 9.54375 15.375L9.01875 16.4625C8.79375 16.9375 8.45625 17.3125 8.00625 17.5875C7.55625 17.8625 7.06875 18 6.54375 18ZM6.6 16.5C6.8375 16.5 7.05313 16.4375 7.24688 16.3125C7.44063 16.1875 7.5875 16.0188 7.6875 15.8063L8.2125 14.7375C8.4 14.35 8.675 14.0469 9.0375 13.8281C9.4 13.6094 9.79375 13.5 10.2188 13.5H13.7813C14.2063 13.5 14.6 13.6125 14.9625 13.8375C15.325 14.0625 15.6063 14.3625 15.8063 14.7375L16.3313 15.8063C16.4313 16.0188 16.5781 16.1875 16.7719 16.3125C16.9656 16.4375 17.1813 16.5 17.4188 16.5C17.7688 16.5 18.0688 16.3844 18.3188 16.1531C18.5688 15.9219 18.7 15.6313 18.7125 15.2813C18.7125 15.2938 18.7 15.175 18.675 14.925L17.1 8.64375C17.0125 8.30625 16.8375 8.03125 16.575 7.81875C16.3125 7.60625 16.0063 7.5 15.6563 7.5H8.34375C7.99375 7.5 7.68438 7.60625 7.41563 7.81875C7.14688 8.03125 6.975 8.30625 6.9 8.64375L5.325 14.925C5.3 15 5.2875 15.1125 5.2875 15.2625C5.2875 15.6125 5.41563 15.9063 5.67188 16.1438C5.92813 16.3813 6.2375 16.5 6.6 16.5ZM13.125 11.25C13.3375 11.25 13.5156 11.1781 13.6594 11.0344C13.8031 10.8906 13.875 10.7125 13.875 10.5C13.875 10.2875 13.8031 10.1094 13.6594 9.96563C13.5156 9.82188 13.3375 9.75 13.125 9.75C12.9125 9.75 12.7344 9.82188 12.5906 9.96563C12.4469 10.1094 12.375 10.2875 12.375 10.5C12.375 10.7125 12.4469 10.8906 12.5906 11.0344C12.7344 11.1781 12.9125 11.25 13.125 11.25ZM14.625 9.75C14.8375 9.75 15.0156 9.67813 15.1594 9.53438C15.3031 9.39063 15.375 9.2125 15.375 9C15.375 8.7875 15.3031 8.60938 15.1594 8.46563C15.0156 8.32188 14.8375 8.25 14.625 8.25C14.4125 8.25 14.2344 8.32188 14.0906 8.46563C13.9469 8.60938 13.875 8.7875 13.875 9C13.875 9.2125 13.9469 9.39063 14.0906 9.53438C14.2344 9.67813 14.4125 9.75 14.625 9.75ZM14.625 12.75C14.8375 12.75 15.0156 12.6781 15.1594 12.5344C15.3031 12.3906 15.375 12.2125 15.375 12C15.375 11.7875 15.3031 11.6094 15.1594 11.4656C15.0156 11.3219 14.8375 11.25 14.625 11.25C14.4125 11.25 14.2344 11.3219 14.0906 11.4656C13.9469 11.6094 13.875 11.7875 13.875 12C13.875 12.2125 13.9469 12.3906 14.0906 12.5344C14.2344 12.6781 14.4125 12.75 14.625 12.75ZM16.125 11.25C16.3375 11.25 16.5156 11.1781 16.6594 11.0344C16.8031 10.8906 16.875 10.7125 16.875 10.5C16.875 10.2875 16.8031 10.1094 16.6594 9.96563C16.5156 9.82188 16.3375 9.75 16.125 9.75C15.9125 9.75 15.7344 9.82188 15.5906 9.96563C15.4469 10.1094 15.375 10.2875 15.375 10.5C15.375 10.7125 15.4469 10.8906 15.5906 11.0344C15.7344 11.1781 15.9125 11.25 16.125 11.25ZM9.375 12.375C9.5375 12.375 9.67188 12.3219 9.77813 12.2156C9.88438 12.1094 9.9375 11.975 9.9375 11.8125V11.0625H10.6875C10.85 11.0625 10.9844 11.0094 11.0906 10.9031C11.1969 10.7969 11.25 10.6625 11.25 10.5C11.25 10.3375 11.1969 10.2031 11.0906 10.0969C10.9844 9.99063 10.85 9.9375 10.6875 9.9375H9.9375V9.1875C9.9375 9.025 9.88438 8.89063 9.77813 8.78438C9.67188 8.67813 9.5375 8.625 9.375 8.625C9.2125 8.625 9.07813 8.67813 8.97188 8.78438C8.86563 8.89063 8.8125 9.025 8.8125 9.1875V9.9375H8.0625C7.9 9.9375 7.76563 9.99063 7.65938 10.0969C7.55313 10.2031 7.5 10.3375 7.5 10.5C7.5 10.6625 7.55313 10.7969 7.65938 10.9031C7.76563 11.0094 7.9 11.0625 8.0625 11.0625H8.8125V11.8125C8.8125 11.975 8.86563 12.1094 8.97188 12.2156C9.07813 12.3219 9.2125 12.375 9.375 12.375Z" fill="#2CB3FF"/>
</svg>
