<svg width="24" height="24" viewBox="0 0 24 24" fill="none" xmlns="http://www.w3.org/2000/svg">
<circle cx="12" cy="12" r="12" fill="#2C2C2C"/>
<path d="M19.7062 21L17.3228 18.6166H5.38335V16.0744C5.38335 15.5599 5.51576 15.087 5.78058 14.6557C6.0454 14.2245 6.39723 13.8953 6.83607 13.6683C7.51702 13.3203 8.20933 13.0404 8.91299 12.8285C9.61665 12.6166 10.3317 12.4578 11.058 12.3518L3 4.29382L4.29382 3L21 19.7062L19.7062 21ZM18.4578 13.6683C18.8966 13.8802 19.2446 14.2018 19.5019 14.633C19.7591 15.0643 19.8953 15.5296 19.9105 16.029L16.8689 12.9874C17.1412 13.0933 17.4098 13.1992 17.6747 13.3052C17.9395 13.4111 18.2005 13.5322 18.4578 13.6683ZM14.6444 10.7629L9.6053 5.72383C9.95334 5.20933 10.3922 4.80832 10.9218 4.52081C11.4515 4.23329 12.0265 4.08953 12.6469 4.08953C13.6456 4.08953 14.5006 4.44515 15.2119 5.15637C15.9231 5.86759 16.2787 6.72257 16.2787 7.72131C16.2787 8.34174 16.1349 8.91677 15.8474 9.44641C15.5599 9.97604 15.1589 10.4149 14.6444 10.7629Z" fill="#E8EAED"/>
</svg>
