<svg width="32" height="32" viewBox="0 0 32 32" fill="none" xmlns="http://www.w3.org/2000/svg">
<circle cx="16" cy="16" r="16" fill="#1E1E1E"/>
<path d="M8 24C7.45 24 6.97917 23.8042 6.5875 23.4125C6.19583 23.0208 6 22.55 6 22V10C6 9.45 6.19583 8.97917 6.5875 8.5875C6.97917 8.19583 7.45 8 8 8H24C24.55 8 25.0208 8.19583 25.4125 8.5875C25.8042 8.97917 26 9.45 26 10V22C26 22.55 25.8042 23.0208 25.4125 23.4125C25.0208 23.8042 24.55 24 24 24H8ZM8 22H24V12H8V22ZM11.5 21L10.1 19.6L12.675 17L10.075 14.4L11.5 13L15.5 17L11.5 21ZM16 21V19H22V21H16Z" fill="#2CB3FF"/>
</svg>
